<svg width="24" height="24" viewBox="0 0 24 24" fill="none" xmlns="http://www.w3.org/2000/svg">
<path fill-rule="evenodd" clip-rule="evenodd" d="M16.213 2C19.6747 2 22 4.16273 22 7.38122V16.6188C22 19.8654 19.7462 21.9769 16.2582 21.997L7.78805 22C4.32645 22 2 19.8373 2 16.6188V7.38122C2 4.1336 4.25378 2.0231 7.74181 2.00402L16.2119 2H16.213ZM16.213 3.50678L7.74732 3.5108C5.18415 3.52486 3.65153 4.97137 3.65153 7.38122V16.6188C3.65153 19.0447 5.19846 20.4932 7.78695 20.4932L16.2527 20.4902C18.8159 20.4761 20.3485 19.0276 20.3485 16.6188V7.38122C20.3485 4.9553 18.8026 3.50678 16.213 3.50678ZM16.0007 15.5346C16.4565 15.5346 16.8264 15.8721 16.8264 16.288C16.8264 16.7039 16.4565 17.0414 16.0007 17.0414H8.05131C7.59549 17.0414 7.22554 16.7039 7.22554 16.288C7.22554 15.8721 7.59549 15.5346 8.05131 15.5346H16.0007ZM16.0007 11.3292C16.4565 11.3292 16.8264 11.6667 16.8264 12.0826C16.8264 12.4984 16.4565 12.836 16.0007 12.836H8.05131C7.59549 12.836 7.22554 12.4984 7.22554 12.0826C7.22554 11.6667 7.59549 11.3292 8.05131 11.3292H16.0007ZM11.0843 7.1335C11.5401 7.1335 11.91 7.47102 11.91 7.88689C11.91 8.30276 11.5401 8.64028 11.0843 8.64028H8.05098C7.59516 8.64028 7.22521 8.30276 7.22521 7.88689C7.22521 7.47102 7.59516 7.1335 8.05098 7.1335H11.0843Z" fill="white"/>
</svg>
